# Blender v2.79 (sub 0) OBJ File: 'backdrop.blend'
# www.blender.org
v -8.000000 0.000000 8.000000
v 8.000000 0.000000 8.000000
v -8.000000 0.000000 -8.000000
v 8.000000 0.000000 -8.000000
v -8.000000 6.000000 8.000000
v 8.000000 6.000000 8.000000
v -8.000000 6.000000 -8.000000
v -8.216506 -0.216506 8.216506
v 8.000000 -0.265156 8.265156
v -8.265156 -0.265156 -8.000000
v 8.000000 -0.375000 -8.000000
v -8.265156 6.000000 8.265156
v 8.000000 6.000000 8.375000
v -8.375000 6.000000 -8.000000
vt 0.460227 1.960227
vt 3.660227 1.960227
vt 3.660227 5.160227
vt 0.460227 5.160227
vt 0.460227 1.960227
vt -2.739774 1.960227
vt -2.739774 3.160227
vt 0.460227 3.160227
vt 3.660227 1.960227
vt 3.660227 3.160227
vt 0.460227 3.160227
vt 0.416925 1.916925
vt 0.407195 5.160227
vt 3.660227 5.160227
vt 3.660227 1.907195
vt 0.460227 1.907195
vt 0.460227 3.160227
vt -2.792805 3.160227
vt -2.783074 1.916925
vt 0.407195 3.160227
vt 3.660227 3.160227
vt 3.660227 1.907195
vt 0.460227 1.960227
vt -2.739774 1.960227
vt -2.792805 1.907195
vt 0.460227 1.885227
vt 0.460227 1.960227
vt 3.660227 1.960227
vt 3.660227 1.885227
vt 0.407195 1.907195
vt 0.460227 1.960227
vt 0.460227 5.160227
vt 0.385227 5.160227
vt 0.407195 1.907195
vt 0.460227 1.960227
vt -2.739774 1.960227
vt -2.792805 1.907195
vt 0.460227 1.885227
vt 0.385227 3.160227
vt 0.407195 1.907195
vt 0.460227 1.960227
vt 0.460227 0.760226
vt 0.407195 0.707196
vt 0.385227 1.960227
vn 0.0000 1.0000 0.0000
vn 0.0000 0.0000 -1.0000
vn 1.0000 0.0000 0.0000
vn -0.0049 -1.0000 0.0049
vn -0.0049 -0.0127 0.9999
vn -0.9999 -0.0127 0.0049
s off
f 1/1/1 2/2/1 4/3/1 3/4/1
f 2/5/2 1/6/2 5/7/2 6/8/2
f 1/1/3 3/9/3 7/10/3 5/11/3
f 8/12/4 10/13/4 11/14/4 9/15/4
f 9/16/5 13/17/5 12/18/5 8/19/5
f 8/12/6 12/20/6 14/21/6 10/22/6
f 4/23/3 2/24/3 9/25/3 11/26/3
f 3/27/2 4/28/2 11/29/2 10/30/2
f 5/31/1 7/32/1 14/33/1 12/34/1
f 6/35/1 5/36/1 12/37/1 13/38/1
f 2/5/3 6/8/3 13/39/3 9/40/3
f 7/41/2 3/42/2 10/43/2 14/44/2
